<svg width="320" height="79" viewBox="0 0 320 79" fill="none" xmlns="http://www.w3.org/2000/svg">
<path d="M73.5296 45.4865L44.0807 43.9317L44.9866 73.4076L37.3652 44.9196L9.6118 54.8897L34.3504 38.838L16.292 15.5239L39.2027 34.0914L55.7954 9.71243L45.2164 37.2395L73.5296 45.4865Z" fill="url(#paint0_linear_0_121)"/>
<path d="M106.05 32.675H108.475V50H106.05V42H97.5752V50H95.1502V32.675H97.5752V39.9H106.05V32.675ZM124.777 32.675H127.202V50H124.777V32.675ZM148.091 32.5C150.524 32.5 152.391 32.9667 153.691 33.9C155.008 34.8167 155.666 36.1917 155.666 38.025C155.666 39.025 155.483 39.8833 155.116 40.6C154.766 41.3 154.249 41.875 153.566 42.325C152.899 42.7583 152.083 43.075 151.116 43.275C150.149 43.475 149.058 43.575 147.841 43.575H145.916V50H143.491V32.925C144.174 32.7583 144.933 32.65 145.766 32.6C146.616 32.5333 147.391 32.5 148.091 32.5ZM148.291 34.625C147.258 34.625 146.466 34.65 145.916 34.7V41.5H147.741C148.574 41.5 149.324 41.45 149.991 41.35C150.658 41.2333 151.216 41.05 151.666 40.8C152.133 40.5333 152.491 40.175 152.741 39.725C152.991 39.275 153.116 38.7 153.116 38C153.116 37.3333 152.983 36.7833 152.716 36.35C152.466 35.9167 152.116 35.575 151.666 35.325C151.233 35.0583 150.724 34.875 150.141 34.775C149.558 34.675 148.941 34.625 148.291 34.625ZM182.576 50C182.209 49.3833 181.784 48.6917 181.301 47.925C180.834 47.1583 180.326 46.3667 179.776 45.55C179.226 44.7167 178.651 43.875 178.051 43.025C177.468 42.175 176.884 41.3583 176.301 40.575C175.718 39.775 175.151 39.025 174.601 38.325C174.051 37.625 173.543 37.0083 173.076 36.475V50H170.701V32.675H172.626C173.409 33.5083 174.243 34.4833 175.126 35.6C176.026 36.7 176.909 37.8417 177.776 39.025C178.659 40.1917 179.484 41.3417 180.251 42.475C181.034 43.6083 181.693 44.6167 182.226 45.5V32.675H184.601V50H182.576ZM200.189 41.325C200.189 39.8417 200.406 38.5333 200.839 37.4C201.289 36.2667 201.889 35.325 202.639 34.575C203.406 33.8083 204.289 33.2333 205.289 32.85C206.306 32.4667 207.381 32.275 208.514 32.275C209.631 32.275 210.681 32.4667 211.664 32.85C212.664 33.2333 213.539 33.8083 214.289 34.575C215.039 35.325 215.631 36.2667 216.064 37.4C216.514 38.5333 216.739 39.8417 216.739 41.325C216.739 42.8083 216.514 44.1167 216.064 45.25C215.631 46.3833 215.039 47.3333 214.289 48.1C213.539 48.85 212.664 49.4167 211.664 49.8C210.681 50.1833 209.631 50.375 208.514 50.375C207.381 50.375 206.306 50.1833 205.289 49.8C204.289 49.4167 203.406 48.85 202.639 48.1C201.889 47.3333 201.289 46.3833 200.839 45.25C200.406 44.1167 200.189 42.8083 200.189 41.325ZM202.739 41.325C202.739 42.375 202.873 43.3333 203.139 44.2C203.406 45.05 203.781 45.775 204.264 46.375C204.764 46.975 205.364 47.4417 206.064 47.775C206.781 48.0917 207.581 48.25 208.464 48.25C209.348 48.25 210.139 48.0917 210.839 47.775C211.539 47.4417 212.131 46.975 212.614 46.375C213.114 45.775 213.498 45.05 213.764 44.2C214.031 43.3333 214.164 42.375 214.164 41.325C214.164 40.275 214.031 39.325 213.764 38.475C213.498 37.6083 213.114 36.875 212.614 36.275C212.131 35.675 211.539 35.2167 210.839 34.9C210.139 34.5667 209.348 34.4 208.464 34.4C207.581 34.4 206.781 34.5667 206.064 34.9C205.364 35.2167 204.764 35.675 204.264 36.275C203.781 36.875 203.406 37.6083 203.139 38.475C202.873 39.325 202.739 40.275 202.739 41.325ZM243.239 32.675V34.775H237.789V50H235.364V34.775H229.914V32.675H243.239ZM257.8 32.675H260.225V50H257.8V32.675ZM283.963 50.375C282.747 50.375 281.638 50.175 280.638 49.775C279.638 49.375 278.78 48.7917 278.063 48.025C277.347 47.2583 276.788 46.3167 276.388 45.2C276.005 44.0667 275.813 42.775 275.813 41.325C275.813 39.875 276.03 38.5917 276.463 37.475C276.913 36.3417 277.513 35.3917 278.263 34.625C279.013 33.8583 279.888 33.275 280.888 32.875C281.888 32.475 282.955 32.275 284.088 32.275C284.805 32.275 285.447 32.325 286.013 32.425C286.597 32.525 287.097 32.6417 287.513 32.775C287.947 32.9083 288.297 33.0417 288.563 33.175C288.83 33.3083 289.013 33.4083 289.113 33.475L288.413 35.475C288.263 35.375 288.047 35.2667 287.763 35.15C287.48 35.0333 287.155 34.9167 286.788 34.8C286.438 34.6833 286.047 34.5917 285.613 34.525C285.197 34.4417 284.772 34.4 284.338 34.4C283.422 34.4 282.597 34.5583 281.863 34.875C281.13 35.1917 280.505 35.65 279.988 36.25C279.472 36.85 279.072 37.5833 278.788 38.45C278.522 39.3 278.388 40.2583 278.388 41.325C278.388 42.3583 278.505 43.3 278.738 44.15C278.988 45 279.355 45.7333 279.838 46.35C280.322 46.95 280.922 47.4167 281.638 47.75C282.372 48.0833 283.222 48.25 284.188 48.25C285.305 48.25 286.23 48.1333 286.963 47.9C287.697 47.6667 288.247 47.4583 288.613 47.275L289.238 49.275C289.122 49.3583 288.913 49.4667 288.613 49.6C288.313 49.7167 287.938 49.8333 287.488 49.95C287.038 50.0667 286.513 50.1667 285.913 50.25C285.313 50.3333 284.663 50.375 283.963 50.375ZM316.153 50C315.87 49.25 315.603 48.5167 315.353 47.8C315.103 47.0667 314.845 46.325 314.578 45.575H306.728L305.153 50H302.628C303.295 48.1667 303.92 46.475 304.503 44.925C305.086 43.3583 305.653 41.875 306.203 40.475C306.77 39.075 307.328 37.7417 307.878 36.475C308.428 35.1917 309.003 33.925 309.603 32.675H311.828C312.428 33.925 313.003 35.1917 313.553 36.475C314.103 37.7417 314.653 39.075 315.203 40.475C315.77 41.875 316.345 43.3583 316.928 44.925C317.511 46.475 318.136 48.1667 318.803 50H316.153ZM313.878 43.575C313.345 42.125 312.811 40.725 312.278 39.375C311.761 38.0083 311.22 36.7 310.653 35.45C310.07 36.7 309.511 38.0083 308.978 39.375C308.461 40.725 307.945 42.125 307.428 43.575H313.878Z" fill="url(#paint1_linear_0_121)"/>
<defs>
<linearGradient id="paint0_linear_0_121" x1="51.0002" y1="14" x2="17.7827" y2="56.9574" gradientUnits="userSpaceOnUse">
<stop stop-color="#21EDAB"/>
<stop offset="0.39304" stop-color="#32CFBF"/>
<stop offset="0.61" stop-color="#52A1D3"/>
<stop offset="0.994792" stop-color="#8F4CF8"/>
</linearGradient>
<linearGradient id="paint1_linear_0_121" x1="115.362" y1="37.7313" x2="126.514" y2="84.3069" gradientUnits="userSpaceOnUse">
<stop stop-color="#21EDAB"/>
<stop offset="0.39304" stop-color="#32CFBF"/>
<stop offset="0.61" stop-color="#52A1D3"/>
<stop offset="0.994792" stop-color="#8F4CF8"/>
</linearGradient>
</defs>
</svg>
