<svg width="19" height="17" viewBox="0 0 19 17" fill="none" xmlns="http://www.w3.org/2000/svg">
<path d="M17.0549 4.62403C17.066 4.79107 17.066 4.9589 17.066 5.12752C17.066 10.2789 13.144 16.2188 5.97471 16.2188V16.2156C3.857 16.2188 1.78283 15.6124 0 14.4684C0.307958 14.5056 0.6175 14.5238 0.927833 14.5246C2.68375 14.5262 4.389 13.9372 5.76888 12.8526C4.10083 12.8209 2.63783 11.7332 2.12721 10.1451C2.71146 10.2575 3.31312 10.2346 3.88708 10.0786C2.06783 9.71128 0.76 8.1129 0.76 6.25723C0.76 6.24061 0.76 6.22398 0.76 6.20815C1.30229 6.51057 1.90871 6.67761 2.52938 6.69582C0.816208 5.55186 0.287375 3.27344 1.32208 1.49219C3.30125 3.92736 6.22171 5.40778 9.35592 5.56532C9.04163 4.21157 9.4715 2.7929 10.4832 1.84053C12.0531 0.364067 14.5223 0.440067 15.9988 2.00994C16.872 1.83815 17.7088 1.51753 18.4743 1.0639C18.183 1.9664 17.5742 2.73273 16.7604 3.2204C17.5338 3.12778 18.2883 2.92115 19 2.60607C18.4767 3.38903 17.818 4.07223 17.0549 4.62403Z" fill="white"/>
</svg>
