<svg width="885" height="616" viewBox="0 0 885 616" fill="none" xmlns="http://www.w3.org/2000/svg">
<g opacity="0.8" filter="url(#filter0_f_9_128)">
<path fill-rule="evenodd" clip-rule="evenodd" d="M589.39 384.612C717.214 299.671 757.325 184.12 780 105C757.14 184.765 739.599 319.597 610.408 405.447C481.006 491.436 373.438 534.867 105 497.552V493.35C370.154 530.209 461.776 469.414 589.39 384.612Z" fill="url(#paint0_linear_9_128)"/>
</g>
<path fill-rule="evenodd" clip-rule="evenodd" d="M645.325 373.595C738.692 300.228 786.94 206.272 796.495 141.791C786.862 206.798 745.032 301.93 650.665 376.082C556.145 450.355 408.938 503.527 189.261 484.287L190.227 480.252C407.216 499.256 552.111 446.841 645.325 373.595Z" fill="url(#paint1_linear_9_128)"/>
<defs>
<filter id="filter0_f_9_128" x="0" y="0" width="885" height="616" filterUnits="userSpaceOnUse" color-interpolation-filters="sRGB">
<feFlood flood-opacity="0" result="BackgroundImageFix"/>
<feBlend mode="normal" in="SourceGraphic" in2="BackgroundImageFix" result="shape"/>
<feGaussianBlur stdDeviation="52.5" result="effect1_foregroundBlur_9_128"/>
</filter>
<linearGradient id="paint0_linear_9_128" x1="171.493" y1="269.238" x2="513.754" y2="572.846" gradientUnits="userSpaceOnUse">
<stop stop-color="#21EDAB"/>
<stop offset="0.39304" stop-color="#32CFBF"/>
<stop offset="0.61" stop-color="#52A1D3"/>
<stop offset="0.994792" stop-color="#8F4CF8"/>
</linearGradient>
<linearGradient id="paint1_linear_9_128" x1="200.794" y1="484.787" x2="853.427" y2="342.637" gradientUnits="userSpaceOnUse">
<stop stop-color="#171D1D"/>
<stop offset="0.158189" stop-color="#28E1B3"/>
<stop offset="0.39304" stop-color="#F4F4F4"/>
<stop offset="0.61" stop-color="#F3F3F3"/>
<stop offset="0.787974" stop-color="#825FF0"/>
<stop offset="0.994792" stop-color="#1B1A22"/>
</linearGradient>
</defs>
</svg>
